#!OML:ASF E:\motion texture\Top Level 1\Subject 1\Session 1\male.ASF
:FULLY-SPECIFIED
:DEGREES
534
root -4.96906 18.0194 6.58398 28.1506 -62.9359 -21.3787
lowerback -0.395284 10.1571 6.31132
upperback -5.47856 13.5361 -5.3081
thorax -2.79085 6.49892 -8.97624
lowerneck -8.12353 -15.1825 -18.2289
upperneck 5.15143 -19.5993 13.8563
head 6.02299 -9.42855 5.18362
rclavicle 5.56597e-015 -1.11319e-014
rhumerus 49.1732 9.21232 -31.6221
rradius 39.3009
rwrist 16.8489
rhand -4.15586 -20.3755
rfingers 7.12502
rthumb 21.6043 -49.1904
lclavicle 5.56597e-015 -1.11319e-014
lhumerus -44.3675 12.1858 64.4868
lradius 47.8747
lwrist -17.8764
lhand -12.3706 17.0929
lfingers 7.12502
lthumb 13.6999 46.6219
rfemur -3.94238 -12.7701 35.2029
rtibia 39.1863
rfoot 3.70666 3.5588
rtoes 8.79701
lfemur -29.3626 -8.41001 -8.02044
ltibia 19.6305
lfoot -2.27061 -6.52606
ltoes -4.7319
535
root -5.10735 18.0254 6.61133 27.8171 -63.0246 -21.1122
lowerback -0.422177 10.1288 6.09979
upperback -5.43251 13.4895 -5.31573
thorax -2.7799 6.48327 -8.8672
lowerneck -7.97478 -15.2336 -18.2862
upperneck 5.08371 -19.7067 14.0343
head 6.0207 -9.481 5.23895
rclavicle 1.36167e-014 -6.36111e-015
rhumerus 47.749 11.0569 -31.2414
rradius 40.9196
rwrist 16.2673
rhand -4.66243 -20.4983
rfingers 7.12502
rthumb 21.1177 -49.3682
lclavicle 1.36167e-014 -6.36111e-015
lhumerus -44.4938 12.6037 64.1822
lradius 47.401
lwrist -17.9994
lhand -12.4281 17.3165
lfingers 7.12502
lthumb 13.6445 46.8493
rfemur -4.32997 -13.0918 34.7732
rtibia 40.3035
rfoot 4.47223 2.9056
rtoes 8.57487
lfemur -28.8853 -8.53159 -8.21443
ltibia 19.8449
lfoot -2.23919 -6.63016
ltoes -4.13005
536
root -5.24487 18.0319 6.63913 27.4709 -63.1096 -20.8351
lowerback -0.441889 10.093 5.88902
upperback -5.38565 13.4335 -5.31766
thorax -2.77484 6.46251 -8.75469
lowerneck -7.82963 -15.2838 -18.3379
upperneck 5.01468 -19.8119 14.2053
head 6.0172 -9.5327 5.29155
rclavicle -1.09332e-013 4.45278e-014
rhumerus 46.2926 12.9379 -30.9703
rradius 42.5885
rwrist 15.7335
rhand -5.20178 -20.6158
rfingers 7.12502
rthumb 20.5995 -49.5428
lclavicle -1.09332e-013 4.45278e-014
lhumerus -44.642 13.0257 63.8691
lradius 46.9136
lwrist -18.127
lhand -12.4766 17.5314
lfingers 7.12502
lthumb 13.5977 47.0673
rfemur -4.74656 -13.4068 34.3333
rtibia 41.4229
rfoot 5.16195 2.20112
rtoes 8.32812
lfemur -28.393 -8.65459 -8.41562
ltibia 20.0446
lfoot -2.23976 -6.71453
ltoes -3.56371
537
root -5.38151 18.0388 6.66734 27.1134 -63.1921 -20.5487
lowerback -0.454183 10.0499 5.6793
upperback -5.33771 13.3685 -5.3136
thorax -2.77537 6.43691 -8.63848
lowerneck -7.68835 -15.3328 -18.385
upperneck 4.94238 -19.9141 14.3704
head 6.01193 -9.58308 5.34203
rclavicle 9.33294e-014 3.65764e-014
rhumerus 44.8014 14.8547 -30.8075
rradius 44.2917
rwrist 15.2495
rhand -5.76477 -20.7182
rfingers 7.12502
rthumb 20.0585 -49.7028
lclavicle 9.33294e-014 3.65764e-014
lhumerus -44.8106 13.444 63.5537
lradius 46.4155
lwrist -18.2446
lhand -12.5419 17.7586
lfingers 7.12502
lthumb 13.5347 47.2988
rfemur -5.1911 -13.7124 33.8838
rtibia 42.5387
rfoot 5.77026 1.45179
rtoes 8.05774
lfemur -27.8864 -8.77726 -8.62394
ltibia 20.2298
lfoot -2.27375 -6.77736
ltoes -3.04431
538
root -5.51717 18.046 6.69588 26.7471 -63.2725 -20.255
lowerback -0.46385 10.0011 5.46794
upperback -5.28506 13.2966 -5.29945
thorax -2.77605 6.40795 -8.51134
lowerneck -7.55277 -15.3825 -18.4323
upperneck 4.86502 -20.0151 14.5296
head 6.00535 -9.633 5.39063
rclavicle -5.71506e-014 -2.8625e-014
rhumerus 43.2743 16.8027 -30.7446
rradius 46.0104
rwrist 14.8183
rhand -6.33938 -20.8042
rfingers 7.12502
rthumb 19.5061 -49.8457
lclavicle -5.71506e-014 -2.8625e-014
lhumerus -44.994 13.8661 63.2413
lradius 45.9048
lwrist -18.3718
lhand -12.5985 17.9755
lfingers 7.12502
lthumb 13.4802 47.5192
rfemur -5.66295 -14.0077 33.4263
rtibia 43.6458
rfoot 6.29221 0.66475
rtoes 7.7653
lfemur -27.3674 -8.89941 -8.83798
ltibia 20.401
lfoot -2.33825 -6.81824
ltoes -2.56254
